<?xml version="1.0" standalone="no"?>
<!DOCTYPE svg PUBLIC "-//W3C//DTD SVG 20010904//EN"
 "http://www.w3.org/TR/2001/REC-SVG-20010904/DTD/svg10.dtd">
<svg version="1.0" xmlns="http://www.w3.org/2000/svg"
 width="256.000000pt" height="256.000000pt" viewBox="0 0 256.000000 256.000000"
 preserveAspectRatio="xMidYMid meet">

<g transform="translate(0.000000,256.000000) scale(0.100000,-0.100000)"
fill="#000000" stroke="none">
<path d="M10 1280 l0 -1280 1275 0 1275 0 0 1280 0 1280 -1275 0 -1275 0 0
-1280z m1120 461 l0 -140 80 -7 c44 -3 80 -10 80 -14 0 -4 -26 -18 -57 -30
-111 -44 -248 -120 -303 -167 -43 -38 -50 -42 -33 -18 11 17 33 41 47 54 l26
24 0 203 c0 111 3 209 6 218 5 13 22 16 80 16 l74 0 0 -139z m380 131 c0 -4
-11 -23 -25 -42 l-25 -34 0 42 c0 38 2 42 25 42 14 0 25 -4 25 -8z m103 -90
c6 -28 2 -37 -33 -72 -34 -34 -125 -90 -147 -90 -4 0 2 8 13 19 10 10 48 57
84 104 36 46 68 82 71 78 4 -3 9 -21 12 -39z m108 -53 c-11 -30 -41 -77 -66
-106 l-45 -51 0 -184 c0 -100 -4 -188 -8 -195 -4 -6 -37 -13 -77 -14 l-70 -3
-3 143 -3 143 -74 -4 c-94 -4 -86 8 40 57 109 42 196 96 244 150 36 41 69 107
72 140 2 19 2 19 6 -1 2 -11 -5 -45 -16 -75z m-619 -381 c-27 -35 -65 -84 -84
-110 l-36 -46 -5 46 c-6 46 -5 48 38 88 36 32 117 83 133 84 2 0 -18 -28 -46
-62z m28 -148 c0 -13 -7 -20 -20 -20 -18 0 -19 3 -10 20 6 11 15 20 20 20 6 0
10 -9 10 -20z m0 -250 c37 0 39 1 43 38 2 20 4 -1 4 -48 0 -52 -2 -71 -6 -50
-5 32 -9 35 -41 35 -32 0 -35 -3 -38 -32 -6 -62 -22 -33 -22 40 0 77 13 115
18 53 3 -35 5 -36 42 -36z m198 -4 c25 -85 25 -86 12 -86 -5 0 -10 7 -10 15 0
10 -11 15 -35 15 -24 0 -35 -5 -35 -15 0 -8 -4 -15 -10 -15 -5 0 -10 4 -10 8
0 7 26 89 45 140 10 27 23 9 43 -62z m102 -2 l0 -64 30 0 c33 0 37 10 43 95 3
40 4 36 5 -20 1 -38 -2 -75 -6 -81 -14 -20 -45 -25 -68 -9 -21 14 -24 23 -24
86 0 44 4 68 10 64 6 -3 10 -35 10 -71z m-602 -186 c13 -13 16 -56 6 -82 -4
-10 -18 -16 -35 -16 -28 0 -29 1 -29 55 0 51 2 55 23 55 13 0 28 -5 35 -12z
m122 2 c0 -5 -9 -10 -20 -10 -11 0 -20 -7 -20 -15 0 -8 7 -15 15 -15 8 0 15
-4 15 -10 0 -5 -7 -10 -15 -10 -27 0 -16 -29 13 -33 20 -4 18 -4 -8 -3 -33 1
-35 3 -38 40 -2 21 -1 44 2 52 6 16 56 19 56 4z m85 -30 c10 -44 21 -44 34 1
7 23 15 39 18 36 7 -8 -27 -107 -36 -107 -4 0 -13 18 -20 41 -7 23 -15 48 -18
57 -4 9 -2 13 5 9 6 -4 13 -21 17 -37z m175 30 c0 -5 -11 -10 -25 -10 -16 0
-25 -6 -25 -15 0 -9 9 -15 22 -15 12 0 18 -3 14 -7 -4 -5 -13 -8 -19 -8 -7 0
-13 -8 -15 -17 -2 -12 5 -18 25 -21 27 -4 27 -4 -4 -6 l-33 -1 0 55 c0 54 0
55 30 55 17 0 30 -4 30 -10z m90 -91 c23 -6 22 -7 -7 -8 l-33 -1 2 58 1 57 6
-50 c5 -42 10 -50 31 -56z m148 89 c14 -14 16 -67 3 -86 -5 -8 -21 -12 -37
-10 -26 3 -29 7 -32 41 -5 57 33 88 66 55z m130 -24 c3 -27 -1 -33 -22 -38
-15 -3 -26 -13 -26 -22 0 -8 -4 -12 -10 -9 -11 7 -14 88 -3 99 4 4 19 6 33 4
20 -2 26 -9 28 -34z m122 26 c0 -5 -11 -10 -25 -10 -16 0 -25 -6 -25 -15 0 -8
7 -15 15 -15 8 0 15 -4 15 -10 0 -5 -5 -9 -12 -7 -6 1 -13 -6 -16 -15 -2 -12
5 -18 25 -21 27 -4 27 -4 -4 -6 l-33 -1 0 55 c0 54 0 55 30 55 17 0 30 -4 30
-10z m107 -2 c9 -15 11 -98 2 -98 -4 0 -9 7 -13 15 -8 21 -34 19 -39 -2 -3
-10 -5 8 -6 40 -1 54 0 57 23 57 14 0 28 -6 33 -12z"/>
<path d="M1284 945 c-7 -30 -1 -40 20 -32 9 4 12 14 9 27 -8 31 -22 34 -29 5z"/>
<path d="M780 710 c0 -37 2 -41 23 -38 18 2 22 9 22 38 0 29 -4 36 -22 38 -21
3 -23 -1 -23 -38z"/>
<path d="M1392 713 c3 -33 6 -38 28 -38 22 0 25 4 25 35 0 31 -3 35 -28 38
-27 3 -28 2 -25 -35z"/>
<path d="M1530 730 c0 -13 7 -20 20 -20 13 0 20 7 20 20 0 13 -7 20 -20 20
-13 0 -20 -7 -20 -20z"/>
<path d="M1760 729 c0 -15 5 -20 22 -17 34 5 37 38 4 38 -20 0 -26 -5 -26 -21z"/>
</g>
</svg>
